<svg xmlns="http://www.w3.org/2000/svg" xmlns:xlink="http://www.w3.org/1999/xlink" width="500" zoomAndPan="magnify" viewBox="0 0 375 149.999998" height="200" preserveAspectRatio="xMidYMid meet" version="1.0"><defs><clipPath id="ac3af00f3a"><path d="M 0.121094 37 L 223 37 L 223 108 L 0.121094 108 Z M 0.121094 37 " clip-rule="nonzero"/></clipPath><clipPath id="2b42692ac3"><path d="M 1.992188 36.695312 L 223.011719 42.519531 L 221.160156 112.863281 L 0.136719 107.042969 Z M 1.992188 36.695312 " clip-rule="nonzero"/></clipPath><clipPath id="97b208d46b"><path d="M 1.992188 36.695312 L 223.011719 42.519531 L 221.160156 112.863281 L 0.136719 107.042969 Z M 1.992188 36.695312 " clip-rule="nonzero"/></clipPath><clipPath id="617084c0a0"><path d="M 129 12 L 169 12 L 169 46 L 129 46 Z M 129 12 " clip-rule="nonzero"/></clipPath><clipPath id="b541d7b6d6"><path d="M 173.246094 41.949219 L 151.710938 54.097656 L 128.574219 13.105469 L 150.109375 0.953125 Z M 173.246094 41.949219 " clip-rule="nonzero"/></clipPath><clipPath id="5b3cab11ae"><path d="M 173.246094 41.949219 L 151.710938 54.097656 L 128.574219 13.105469 L 150.109375 0.953125 Z M 173.246094 41.949219 " clip-rule="nonzero"/></clipPath><clipPath id="43c38373d5"><rect x="0" width="224" y="0" height="113"/></clipPath></defs><g transform="matrix(1, 0, 0, 1, 75, 14)"><g clip-path="url(#43c38373d5)"><g clip-path="url(#ac3af00f3a)"><g clip-path="url(#2b42692ac3)"><g clip-path="url(#97b208d46b)"><path fill="#004207" d="M 2.28125 97.164062 C 2.933594 100.945312 3.699219 105.359375 6.324219 107.035156 C 7.261719 107.019531 8.257812 105.933594 9.027344 105.089844 C 9.3125 104.65625 9.324219 103.976562 9.148438 103.359375 C 9.0625 103.066406 8.933594 102.800781 8.769531 102.597656 C 8.65625 102.453125 8.53125 102.351562 8.414062 102.316406 C 8.269531 102.273438 8.0625 102.324219 7.78125 102.515625 L 7.777344 102.519531 L 7.777344 102.523438 C 7.78125 102.523438 7.78125 102.523438 7.777344 102.523438 C 7.554688 102.707031 7.304688 102.914062 6.835938 102.902344 C 6.011719 102.878906 5.75 102.148438 5.570312 101.652344 C 5.546875 101.589844 5.578125 101.636719 5.554688 101.589844 L 5.511719 101.5 L 5.496094 101.453125 C 4.195312 97.460938 3.367188 93.320312 2.96875 89.132812 C 2.554688 84.785156 2.605469 80.386719 3.074219 76.066406 L 3.078125 76.066406 C 3.617188 70.925781 5.019531 65.84375 7.226562 61.15625 C 9.359375 56.628906 12.253906 52.46875 15.867188 48.972656 L 15.875 48.960938 C 18.125 46.847656 20.722656 44.765625 23.582031 43.265625 C 26.511719 41.730469 29.710938 40.808594 33.085938 41.085938 C 33.488281 41.113281 33.882812 41.171875 34.269531 41.261719 C 36.261719 41.714844 37.976562 42.945312 39.15625 44.5625 C 40.328125 46.175781 40.980469 48.183594 40.851562 50.203125 C 40.824219 50.613281 40.765625 51.023438 40.671875 51.4375 L 40.671875 51.445312 C 40.242188 53.238281 39.242188 54.703125 37.964844 55.90625 C 36.746094 57.054688 35.277344 57.953125 33.839844 58.671875 L 33.570312 58.804688 L 33.28125 58.796875 C 32.585938 58.777344 31.894531 58.816406 31.289062 58.984375 C 30.761719 59.132812 30.277344 59.375 29.882812 59.769531 C 29.277344 60.617188 29.085938 61.359375 29.191406 61.933594 C 29.246094 62.226562 29.382812 62.480469 29.582031 62.679688 C 29.800781 62.894531 30.09375 63.054688 30.445312 63.140625 C 31.214844 63.332031 32.203125 63.171875 33.21875 62.519531 L 33.5625 62.300781 L 33.957031 62.332031 C 36.011719 62.5 38.046875 62.996094 39.964844 63.769531 C 41.894531 64.550781 43.707031 65.613281 45.3125 66.917969 L 47.488281 68.6875 L 44.699219 69.023438 C 32.972656 70.449219 26.105469 74.539062 23.449219 78.597656 C 22.523438 80.015625 22.140625 81.402344 22.28125 82.625 C 22.414062 83.777344 23.035156 84.808594 24.113281 85.59375 C 26.613281 87.410156 31.410156 87.933594 38.28125 85.882812 L 38.292969 85.875 C 41.421875 84.972656 44.695312 83.484375 47.152344 81.289062 C 49.074219 79.570312 50.496094 77.414062 50.945312 74.757812 L 50.976562 74.59375 L 51.042969 74.449219 C 51.046875 74.445312 51.03125 74.164062 51.015625 73.902344 C 50.964844 73.070312 50.917969 72.285156 51.726562 71.757812 L 51.972656 71.59375 L 52.269531 71.566406 C 53.007812 71.5 53.902344 71.410156 54.800781 71.324219 C 55.59375 71.246094 56.386719 71.171875 57.335938 71.082031 L 57.375 71.085938 C 58.371094 71.023438 59.132812 70.914062 59.6875 70.832031 C 60.695312 70.6875 61.214844 70.613281 61.828125 71 C 62.480469 71.40625 62.632812 71.949219 62.945312 73.078125 C 63.078125 73.546875 63.25 74.160156 63.511719 74.953125 C 65.75 79.984375 69.480469 80.019531 73.351562 78.320312 C 76.4375 76.96875 79.6875 74.546875 82.441406 72.492188 C 83.414062 71.765625 84.324219 71.085938 85.28125 70.425781 L 85.28125 70.421875 L 85.425781 70.316406 L 85.429688 70.320312 C 87.191406 69.054688 89.886719 67.121094 92.324219 66.609375 C 94.847656 66.078125 97.015625 66.847656 97.789062 70.523438 L 97.828125 70.714844 L 97.800781 70.921875 C 97.710938 71.613281 97.628906 72.394531 97.730469 73.074219 C 97.808594 73.585938 98.003906 74.046875 98.433594 74.335938 C 98.816406 74.539062 99.058594 74.382812 99.226562 74.101562 C 99.566406 73.53125 99.804688 72.644531 99.996094 71.933594 C 100.0625 71.683594 100.125 71.457031 100.183594 71.257812 L 100.265625 70.996094 L 100.445312 70.796875 C 102.414062 68.632812 105.242188 66.847656 108.238281 66.074219 C 110.925781 65.375 113.765625 65.480469 116.285156 66.8125 L 116.335938 66.839844 L 116.390625 66.875 C 117.828125 67.832031 119.019531 69.132812 119.949219 70.59375 C 120.964844 72.1875 121.683594 73.992188 122.089844 75.761719 L 122.101562 75.816406 C 122.125 75.945312 122.210938 76.070312 122.335938 76.171875 C 122.464844 76.28125 122.632812 76.359375 122.8125 76.40625 C 122.996094 76.457031 123.183594 76.46875 123.351562 76.4375 C 123.503906 76.410156 123.640625 76.34375 123.734375 76.234375 C 123.796875 76.160156 123.84375 76 123.878906 75.796875 C 123.9375 75.453125 123.9375 75.046875 123.894531 74.632812 L 123.800781 73.785156 L 123.515625 73.09375 C 123.488281 73.023438 123.464844 72.972656 123.453125 72.941406 C 123.429688 72.898438 123.410156 72.855469 123.386719 72.8125 L 123.328125 72.710938 L 123.292969 72.597656 C 122.421875 69.800781 121.144531 67.5625 119.589844 65.894531 C 117.980469 64.160156 116.070312 63.03125 114.007812 62.511719 C 111.933594 61.992188 109.691406 62.078125 107.421875 62.789062 C 105.054688 63.527344 102.664062 64.9375 100.414062 67.027344 L 99.1875 68.167969 L 98.511719 66.640625 C 96.929688 63.082031 94.640625 62.386719 92.035156 63.128906 C 89.039062 63.984375 85.53125 66.554688 82.101562 69.128906 L 82.097656 69.128906 L 81.519531 69.5625 C 78.339844 71.945312 75.257812 74.257812 72.535156 75.308594 C 69.050781 76.648438 66.203125 76.125 64.542969 71.8125 L 63.960938 70.304688 L 65.578125 70.195312 C 68.101562 70.027344 71.015625 69.507812 73.1875 68.390625 C 74.152344 67.898438 74.953125 67.296875 75.480469 66.5625 C 75.96875 65.878906 76.230469 65.054688 76.164062 64.066406 C 76.109375 63.25 75.835938 62.3125 75.292969 61.238281 C 74.527344 60.097656 73.609375 59.382812 72.632812 59.015625 C 71.441406 58.566406 70.121094 58.617188 68.84375 59.035156 C 67.503906 59.472656 66.230469 60.308594 65.199219 61.390625 C 63.945312 62.703125 63.054688 64.375 62.847656 66.148438 L 62.734375 67.113281 L 61.765625 67.195312 C 60.320312 67.320312 58.648438 67.484375 56.976562 67.644531 C 54.890625 67.847656 52.808594 68.050781 50.554688 68.222656 L 49.828125 68.277344 L 49.445312 67.652344 C 48.433594 65.980469 47.085938 64.539062 45.542969 63.328125 C 43.828125 61.984375 41.863281 60.921875 39.835938 60.148438 L 38.207031 59.523438 L 39.382812 58.230469 C 41.203125 56.234375 42.265625 53.652344 42.550781 50.972656 C 42.84375 48.242188 42.335938 45.425781 41.015625 43.023438 L 41.011719 43.023438 C 40.09375 41.449219 39.035156 40.257812 37.882812 39.390625 C 35.695312 37.753906 33.105469 37.269531 30.398438 37.574219 C 27.582031 37.890625 24.632812 39.054688 21.859375 40.679688 C 17.769531 43.070312 14.089844 46.429688 11.75 49.554688 L 11.71875 49.59375 C 7.007812 55.363281 3.964844 62.144531 2.320312 69.304688 C 0.492188 77.246094 0.375 85.652344 1.589844 93.675781 C 1.859375 94.75 2.066406 95.925781 2.28125 97.164062 Z M 123.445312 72.503906 L 123.492188 73.21875 L 123.847656 74.210938 C 123.980469 74.523438 124.117188 74.632812 124.328125 74.972656 C 124.550781 75.328125 124.808594 75.679688 125.105469 76.035156 L 125.109375 76.035156 C 125.796875 76.855469 126.726562 77.363281 127.753906 77.671875 C 128.867188 78.007812 130.105469 78.121094 131.292969 78.152344 L 131.292969 78.148438 C 133.90625 78.214844 136.609375 77.464844 138.996094 76.152344 C 141.421875 74.816406 143.507812 72.910156 144.828125 70.695312 L 145.855469 68.972656 L 146.878906 70.703125 C 147.5625 71.859375 148.285156 72.789062 149.042969 73.519531 C 150.613281 75.027344 152.316406 75.632812 154.054688 75.601562 C 155.878906 75.570312 157.785156 74.859375 159.652344 73.753906 C 161.949219 72.398438 164.183594 70.449219 166.15625 68.40625 C 166.996094 67.328125 167.484375 67.1875 168.316406 67.828125 C 168.546875 68.003906 168.644531 68.167969 168.777344 68.386719 C 168.828125 68.46875 168.890625 68.570312 168.964844 68.664062 L 169.015625 68.738281 C 169.335938 69.210938 169.703125 69.644531 170.105469 70.039062 C 172.054688 71.949219 174.835938 72.863281 177.722656 72.910156 C 180.660156 72.960938 183.679688 72.117188 186.042969 70.511719 C 186.660156 70.09375 187.234375 69.617188 187.753906 69.089844 L 188.800781 68.023438 L 189.636719 69.332031 L 189.640625 69.328125 C 191.171875 71.714844 193.089844 73.476562 195.453125 74.0625 C 197.839844 74.65625 200.773438 74.082031 204.359375 71.792969 L 204.363281 71.796875 L 205.242188 71.234375 L 205.917969 71.921875 C 206.417969 72.425781 206.925781 72.914062 207.445312 73.367188 C 207.960938 73.816406 208.503906 74.242188 209.074219 74.632812 L 209.085938 74.644531 C 210.332031 75.523438 211.5 76.160156 212.59375 76.585938 C 213.722656 77.023438 214.765625 77.238281 215.726562 77.261719 L 215.726562 77.257812 C 217.789062 77.3125 219.4375 76.464844 220.578125 75.109375 C 221.476562 74.050781 222.078125 72.667969 222.34375 71.144531 C 222.617188 69.589844 222.535156 67.910156 222.058594 66.28125 C 221.21875 63.421875 219.148438 60.722656 215.605469 59.167969 C 214.570312 58.746094 213.464844 58.550781 212.355469 58.566406 C 211.214844 58.582031 210.070312 58.824219 209 59.265625 C 207.578125 60.046875 206.300781 60.890625 205.480469 62.160156 C 204.648438 63.453125 204.226562 65.273438 204.496094 68.070312 L 204.558594 68.730469 L 204.023438 69.136719 C 202.3125 70.425781 200.683594 71.105469 199.160156 71.3125 C 197.511719 71.539062 196.011719 71.207031 194.675781 70.492188 C 193.390625 69.804688 192.273438 68.765625 191.34375 67.53125 C 189.558594 65.164062 188.417969 62.023438 188.035156 59.292969 C 187.949219 58.875 187.867188 58.476562 187.796875 58.101562 C 187.753906 57.871094 187.679688 57.464844 187.578125 56.902344 L 187.328125 55.511719 L 189.070312 55.503906 C 190.625 55.496094 192.183594 55.492188 193.8125 55.460938 L 193.898438 55.460938 C 195.117188 55.535156 195.925781 55.054688 196.289062 54.410156 C 196.421875 54.175781 196.5 53.925781 196.515625 53.683594 C 196.527344 53.449219 196.488281 53.214844 196.394531 53.003906 C 196.152344 52.464844 195.5 52.042969 194.375 52.011719 C 193.097656 52.09375 191.964844 52.144531 190.929688 52.179688 C 189.882812 52.214844 188.863281 52.230469 187.855469 52.238281 L 186.816406 52.246094 L 186.664062 51.21875 C 186.570312 50.582031 186.480469 49.945312 186.386719 49.3125 C 186.320312 48.847656 186.253906 48.382812 186.183594 47.921875 L 186.1875 47.921875 C 186.09375 47.460938 186.035156 46.898438 185.96875 46.261719 C 185.84375 45.042969 185.6875 43.539062 185.273438 42.554688 L 185.273438 42.546875 C 185.109375 42.148438 184.90625 41.851562 184.691406 41.699219 C 184.636719 41.660156 184.597656 41.636719 184.570312 41.632812 C 184.5625 41.632812 184.554688 41.632812 184.542969 41.636719 C 184.457031 41.671875 184.351562 41.769531 184.226562 41.9375 C 183.28125 43.753906 183.671875 45.886719 184.0625 48.039062 C 184.242188 49.007812 184.417969 49.984375 184.496094 50.988281 L 184.59375 52.25 L 183.324219 52.269531 C 182.535156 52.28125 181.683594 52.300781 180.71875 52.335938 C 179.78125 52.371094 178.828125 52.417969 177.847656 52.480469 C 177.511719 52.539062 177.214844 52.570312 176.914062 52.597656 C 176.015625 52.683594 175.046875 52.777344 175.011719 54.035156 C 174.988281 54.855469 175.285156 55.285156 175.71875 55.5 C 176.332031 55.800781 177.246094 55.847656 178.121094 55.828125 C 179.117188 55.746094 180.09375 55.6875 181.054688 55.644531 C 181.984375 55.601562 182.972656 55.570312 183.996094 55.550781 L 185.015625 55.53125 L 185.191406 56.535156 C 185.449219 57.996094 185.777344 59.503906 186.179688 61.003906 C 186.546875 62.355469 186.96875 63.683594 187.460938 64.949219 L 187.820312 65.871094 L 186.972656 66.394531 C 186.816406 66.488281 186.652344 66.597656 186.476562 66.71875 C 186.289062 66.851562 186.101562 66.992188 185.910156 67.140625 L 185.882812 67.160156 C 183.648438 68.808594 180.839844 69.820312 178.046875 69.804688 C 175.523438 69.792969 173.011719 68.953125 170.941406 67.007812 L 170.851562 66.921875 L 170.769531 66.804688 C 168.710938 63.746094 167.820312 63.203125 167.0625 63.714844 C 166.570312 64.046875 165.992188 64.679688 165.304688 65.429688 C 163.730469 67.152344 161.65625 69.425781 158.105469 71.03125 C 157.226562 71.539062 156.382812 71.835938 155.570312 71.949219 C 154.082031 72.160156 152.753906 71.769531 151.597656 70.972656 C 150.519531 70.230469 149.609375 69.144531 148.871094 67.882812 C 147.660156 65.8125 146.871094 63.226562 146.546875 60.9375 C 146.40625 60.179688 146.558594 61.007812 146.4375 60.347656 C 145.789062 56.855469 145.082031 53.023438 145.042969 47.289062 C 145.039062 46.96875 145 46.628906 144.914062 46.304688 C 144.828125 45.980469 144.695312 45.691406 144.507812 45.503906 C 144.375 45.371094 144.191406 45.289062 143.9375 45.289062 C 143.800781 45.292969 143.640625 45.316406 143.449219 45.367188 C 143.234375 45.421875 143.050781 45.601562 142.910156 45.882812 C 142.699219 46.300781 142.585938 46.898438 142.597656 47.648438 C 142.644531 51.085938 142.816406 54.277344 143.113281 56.957031 C 143.390625 59.460938 143.773438 61.488281 144.253906 62.824219 L 145.0625 65.070312 L 142.785156 64.367188 C 141.453125 63.957031 139.722656 63.832031 137.835938 63.957031 C 134.855469 64.152344 131.546875 64.964844 128.816406 66.277344 C 126.230469 67.515625 124.207031 69.171875 123.613281 71.097656 C 123.476562 71.550781 123.414062 72.019531 123.445312 72.503906 Z M 7.746094 102.539062 C 7.691406 102.574219 7.765625 102.53125 7.777344 102.523438 L 7.777344 102.519531 Z M 5.984375 107.0625 L 6.058594 107.046875 C 6.054688 107.046875 5.910156 107.082031 5.984375 107.0625 Z M 209.324219 61.847656 C 209.554688 61.710938 209.796875 61.601562 210.046875 61.515625 L 210.054688 61.515625 C 212.097656 60.84375 213.898438 60.867188 215.414062 61.359375 C 216.65625 61.757812 217.695312 62.464844 218.519531 63.355469 C 219.324219 64.226562 219.917969 65.277344 220.285156 66.386719 C 220.816406 67.992188 220.863281 69.730469 220.378906 71.230469 C 220.011719 72.371094 219.214844 73.265625 218.175781 73.871094 C 217.363281 74.339844 216.40625 74.632812 215.394531 74.722656 C 214.402344 74.804688 213.347656 74.695312 212.320312 74.363281 C 210.59375 73.804688 208.949219 72.617188 207.824219 70.683594 C 207.5625 70.230469 207.355469 69.765625 207.199219 69.296875 C 206.714844 67.847656 206.703125 66.328125 207.058594 65.027344 C 207.433594 63.644531 208.226562 62.484375 209.324219 61.847656 Z M 165.949219 55.335938 C 166.003906 55.382812 166.066406 55.421875 166.128906 55.449219 L 166.183594 55.472656 C 166.238281 55.5 166.277344 55.515625 166.300781 55.515625 C 166.414062 55.507812 166.515625 55.496094 166.617188 55.46875 C 166.691406 55.449219 166.757812 55.421875 166.828125 55.382812 L 166.835938 55.375 C 166.890625 55.34375 166.933594 55.3125 166.96875 55.28125 C 167.015625 55.242188 167.066406 55.183594 167.125 55.117188 L 167.125 55.121094 C 167.253906 54.960938 167.351562 54.773438 167.421875 54.566406 C 167.507812 54.332031 167.550781 54.070312 167.558594 53.804688 C 167.570312 53.324219 167.429688 52.785156 167.148438 52.40625 C 166.984375 52.183594 166.765625 52.027344 166.5 52.019531 C 166.238281 52.011719 166.011719 52.15625 165.832031 52.371094 C 165.53125 52.742188 165.363281 53.269531 165.347656 53.746094 C 165.34375 54.011719 165.371094 54.277344 165.441406 54.515625 C 165.503906 54.726562 165.59375 54.921875 165.710938 55.085938 C 165.785156 55.179688 165.863281 55.265625 165.949219 55.335938 Z M 128.417969 75.339844 C 126.53125 74.847656 125.496094 73.710938 126.007812 71.730469 L 126.007812 71.726562 C 126.414062 70.179688 127.59375 69.011719 129.164062 68.15625 C 130.984375 67.167969 133.363281 66.589844 135.582031 66.34375 C 137.808594 66.09375 139.921875 66.171875 141.160156 66.496094 C 141.96875 66.707031 142.554688 67.070312 142.835938 67.585938 C 144.011719 69.71875 142.503906 71.667969 139.890625 73.117188 C 138.234375 74.035156 136.097656 74.773438 134.046875 75.1875 C 131.9375 75.617188 129.871094 75.714844 128.417969 75.339844 Z M 32.015625 83.632812 C 29.105469 83.871094 26.496094 83.535156 24.886719 82.457031 L 23.722656 81.675781 L 24.675781 80.652344 C 30.039062 74.917969 38.300781 73.578125 45.675781 72.378906 C 46.183594 72.296875 46.6875 72.214844 47.640625 72.054688 L 48.921875 71.839844 L 49.027344 73.136719 C 49.125 74.308594 48.769531 75.425781 48.070312 76.464844 C 46.765625 78.410156 44.203125 80.101562 41.21875 81.351562 C 38.320312 82.566406 34.980469 83.390625 32.015625 83.632812 Z M 66.636719 61.800781 C 67.304688 61.273438 68.078125 61 68.664062 60.804688 C 69.332031 60.570312 70.089844 60.4375 70.792969 60.410156 C 71.546875 60.382812 72.273438 60.476562 72.808594 60.695312 L 72.824219 60.707031 C 73.296875 60.910156 73.773438 61.304688 74.082031 61.789062 C 74.332031 62.171875 74.488281 62.625 74.484375 63.113281 C 74.484375 63.628906 74.308594 64.144531 73.894531 64.609375 C 73.515625 65.03125 72.933594 65.402344 72.082031 65.660156 C 71.683594 65.800781 70.304688 66.242188 69.015625 66.417969 C 68.386719 66.5 67.765625 66.527344 67.242188 66.433594 C 66.429688 66.292969 65.804688 65.902344 65.527344 65.136719 C 65.484375 65.015625 65.449219 64.882812 65.429688 64.742188 L 65.433594 64.734375 C 65.253906 63.359375 65.820312 62.441406 66.636719 61.800781 Z M 66.636719 61.800781 " fill-opacity="1" fill-rule="nonzero"/></g></g></g><g clip-path="url(#617084c0a0)"><g clip-path="url(#b541d7b6d6)"><g clip-path="url(#5b3cab11ae)"><path fill="#004207" d="M 145.117188 22.691406 C 145.425781 22.355469 145.714844 22.035156 146.015625 21.722656 C 146.125 21.605469 146.246094 21.503906 146.378906 21.410156 C 146.621094 21.242188 146.898438 21.011719 147.175781 21.253906 C 147.449219 21.5 147.238281 21.800781 147.101562 22.0625 C 147.007812 22.238281 146.914062 22.417969 146.785156 22.664062 C 147.261719 22.410156 147.539062 21.953125 148.054688 21.828125 C 148.332031 22.480469 147.640625 22.652344 147.53125 23.175781 C 151.089844 24.457031 154.652344 25.8125 158.332031 26.84375 C 158.292969 26.464844 158.261719 26.117188 158.222656 25.722656 C 156.945312 25.453125 155.621094 25.210938 154.316406 24.890625 C 152.726562 24.503906 151.148438 24.0625 149.570312 23.621094 C 148.976562 23.46875 148.464844 23.171875 148.03125 22.738281 C 148.414062 22.75 148.660156 22.722656 148.886719 22.773438 C 149.902344 23.015625 150.921875 23.261719 151.925781 23.542969 C 152.957031 23.828125 153.96875 24.175781 154.996094 24.464844 C 155.851562 24.703125 156.71875 24.894531 157.578125 25.113281 C 158.132812 25.253906 158.675781 25.34375 159.261719 25.296875 C 159.746094 25.257812 160.289062 25.304688 160.734375 25.492188 C 161.722656 25.894531 162.734375 26.300781 163.601562 26.902344 C 165.914062 28.507812 167.304688 30.742188 167.6875 33.5625 C 167.777344 34.195312 167.953125 34.824219 167.972656 35.453125 C 168.023438 36.996094 168.015625 38.542969 168.011719 40.085938 C 168.007812 40.417969 167.914062 40.75 167.863281 41.078125 C 167.460938 41.023438 167.460938 41.023438 167.195312 40.773438 C 167.296875 41.421875 167.441406 42.0625 167.496094 42.710938 C 167.539062 43.347656 167.539062 43.984375 167.503906 44.621094 C 167.488281 44.929688 167.449219 45.28125 167.066406 45.398438 C 166.773438 45.484375 166.546875 45.332031 166.269531 44.894531 C 165.90625 44.320312 165.566406 43.722656 165.15625 43.183594 C 164.886719 42.824219 164.523438 42.527344 164.171875 42.242188 C 163.65625 41.820312 163.066406 41.703125 162.386719 41.746094 C 161.65625 41.789062 160.9375 41.738281 160.222656 41.59375 C 159.105469 41.367188 158.015625 41.035156 156.914062 40.742188 C 154.929688 40.210938 153.515625 39 152.558594 37.179688 C 152.164062 36.425781 151.605469 35.742188 151.070312 35.070312 C 149.929688 33.625 148.78125 32.179688 147.578125 30.785156 C 146.621094 29.679688 145.71875 28.542969 144.976562 27.285156 C 144.914062 27.1875 144.847656 27.097656 144.773438 27.015625 C 144.765625 27 144.730469 27.007812 144.660156 26.996094 C 144.5625 27.171875 144.484375 27.394531 144.335938 27.546875 C 144.230469 27.65625 144.003906 27.757812 143.882812 27.714844 C 143.757812 27.671875 143.648438 27.449219 143.640625 27.300781 C 143.628906 27.128906 143.71875 26.945312 143.804688 26.789062 C 144.113281 26.234375 144.445312 25.691406 144.761719 25.136719 C 145.21875 24.339844 145.671875 23.539062 146.074219 22.707031 C 145.195312 23.722656 144.320312 24.730469 143.855469 26.019531 C 143.738281 26.347656 143.550781 26.648438 143.359375 27.027344 C 143.011719 26.710938 143.078125 26.425781 143.136719 26.144531 C 143.3125 25.351562 143.707031 24.664062 144.164062 24.003906 C 144.386719 23.6875 144.609375 23.371094 144.835938 23.046875 C 143.960938 22.589844 143.078125 22.183594 142.253906 21.683594 C 139.84375 20.203125 137.570312 18.535156 135.433594 16.679688 C 134.292969 15.699219 133.140625 14.738281 131.957031 13.808594 C 131.574219 13.515625 131.15625 13.300781 130.695312 13.164062 C 130.054688 12.964844 129.628906 13.414062 129.761719 14.074219 C 129.875 14.621094 130.238281 15.015625 130.664062 15.316406 C 131.3125 15.777344 131.964844 16.253906 132.6875 16.582031 C 135.019531 17.628906 137.207031 18.925781 139.351562 20.308594 C 140.445312 21.015625 141.570312 21.65625 142.660156 22.355469 C 143.058594 22.609375 143.402344 22.945312 143.835938 23.292969 C 143.4375 23.425781 143.222656 23.210938 143.011719 23.097656 C 141.339844 22.214844 139.683594 21.308594 138.023438 20.40625 C 136.246094 19.441406 134.464844 18.46875 132.683594 17.511719 C 131.726562 17.015625 130.867188 16.386719 130.109375 15.621094 C 129.65625 15.160156 129.285156 14.648438 129.199219 13.980469 C 129.054688 12.894531 129.867188 12.066406 130.929688 12.308594 C 131.488281 12.429688 132.003906 12.65625 132.46875 12.992188 C 133.523438 13.78125 134.542969 14.625 135.519531 15.515625 C 137.492188 17.304688 139.492188 19.066406 141.691406 20.582031 C 142.402344 21.074219 143.144531 21.515625 143.882812 21.96875 C 144.261719 22.203125 144.660156 22.425781 145.117188 22.691406 Z M 157.707031 36.363281 C 158.25 36.554688 158.710938 36.425781 159.1875 35.992188 C 159 35.789062 158.855469 35.59375 158.675781 35.4375 C 158.523438 35.308594 158.324219 35.234375 158.160156 35.117188 C 157.859375 34.910156 157.574219 34.6875 157.304688 34.445312 C 157.117188 34.265625 157.007812 33.984375 157.183594 33.761719 C 157.304688 33.609375 157.546875 33.523438 157.753906 33.476562 C 157.9375 33.433594 158.144531 33.484375 158.34375 33.492188 C 156.957031 32.597656 155.53125 31.808594 154.136719 30.964844 C 152.714844 30.105469 151.316406 29.210938 149.929688 28.300781 C 148.585938 27.417969 147.265625 26.496094 145.9375 25.589844 C 146.128906 25.816406 146.335938 26.023438 146.554688 26.21875 C 148.371094 27.910156 150.175781 29.613281 152.007812 31.285156 C 152.878906 32.082031 153.800781 32.828125 154.699219 33.597656 C 155.597656 34.367188 156.5 35.128906 157.386719 35.90625 C 157.53125 36.03125 157.605469 36.222656 157.714844 36.390625 C 157.207031 36.007812 156.703125 35.621094 156.195312 35.242188 C 155.046875 34.386719 153.808594 33.625 152.765625 32.65625 C 150.460938 30.523438 148.253906 28.292969 146.007812 26.101562 C 145.847656 25.945312 145.683594 25.796875 145.46875 25.601562 L 144.894531 26.5 C 145.023438 26.605469 145.175781 26.664062 145.222656 26.769531 C 145.507812 27.492188 146.078125 27.984375 146.589844 28.53125 C 147.636719 29.640625 148.640625 30.789062 149.722656 31.859375 C 151.113281 33.234375 152.554688 34.558594 153.988281 35.894531 C 154.667969 36.523438 155.3125 37.222656 156.082031 37.71875 C 156.9375 38.269531 157.96875 38.421875 159.105469 38.597656 C 158.761719 38.019531 158.300781 37.800781 157.929688 37.484375 C 157.558594 37.167969 156.988281 37.03125 156.8125 36.371094 C 157.148438 36.371094 157.425781 36.371094 157.707031 36.363281 Z M 161.082031 33.6875 C 160.917969 33.46875 160.800781 33.25 160.625 33.089844 C 160.207031 32.710938 159.765625 32.347656 159.320312 31.996094 C 158.320312 31.195312 157.328125 30.378906 156.765625 29.199219 C 156.523438 28.691406 156.171875 28.453125 155.667969 28.292969 C 152.644531 27.339844 149.773438 26.027344 147.027344 24.445312 C 146.859375 24.363281 146.6875 24.289062 146.511719 24.230469 L 146 24.898438 C 147.585938 26.078125 149.117188 27.21875 150.652344 28.355469 C 153.527344 30.492188 156.6875 32.152344 159.835938 33.832031 C 160.234375 34.046875 160.613281 34.054688 161.085938 33.6875 Z M 162.117188 30.601562 C 162.132812 30.460938 162.152344 30.417969 162.140625 30.382812 C 162.117188 30.292969 162.078125 30.210938 162.027344 30.136719 C 161.1875 29.035156 160.148438 28.136719 158.921875 27.53125 C 158.054688 27.101562 157.074219 26.898438 156.152344 26.582031 C 154.714844 26.082031 153.285156 25.558594 151.84375 25.0625 C 150.707031 24.671875 149.550781 24.324219 148.414062 23.933594 C 148.007812 23.796875 147.628906 23.589844 147.199219 23.394531 L 146.765625 23.945312 C 147.394531 24.25 147.953125 24.503906 148.496094 24.785156 C 149.566406 25.335938 150.597656 25.972656 151.703125 26.441406 C 153.207031 27.082031 154.761719 27.601562 156.296875 28.167969 C 156.394531 28.199219 156.539062 28.234375 156.613281 28.191406 C 157.003906 27.960938 157.371094 28.125 157.734375 28.234375 C 158.902344 28.585938 159.949219 29.179688 160.953125 29.847656 C 161.324219 30.097656 161.703125 30.335938 162.117188 30.601562 Z M 150.605469 33.328125 L 150.527344 33.367188 C 151.015625 34.042969 151.519531 34.707031 151.980469 35.402344 C 152.28125 35.855469 152.554688 36.277344 153.152344 36.410156 C 153.472656 36.484375 153.753906 36.714844 154.058594 36.867188 C 154.335938 37.003906 154.617188 37.128906 154.898438 37.257812 L 154.929688 37.195312 Z M 150.605469 33.328125 " fill-opacity="1" fill-rule="nonzero"/></g></g></g></g></g></svg>