<svg xmlns="http://www.w3.org/2000/svg" xmlns:xlink="http://www.w3.org/1999/xlink" width="500" zoomAndPan="magnify" viewBox="0 0 375 374.999991" height="500" preserveAspectRatio="xMidYMid meet" version="1.0"><defs><clipPath id="b7b7d37870"><path d="M 1.113281 0.800781 L 221.953125 0.800781 L 221.953125 268.359375 L 1.113281 268.359375 Z M 1.113281 0.800781 " clip-rule="nonzero"/></clipPath><clipPath id="ec46171028"><path d="M 217 73 L 279 73 L 279 254 L 217 254 Z M 217 73 " clip-rule="nonzero"/></clipPath><clipPath id="c49cee41bc"><path d="M 257.199219 57.773438 L 332.207031 114.386719 L 225.214844 256.152344 L 150.203125 199.542969 Z M 257.199219 57.773438 " clip-rule="nonzero"/></clipPath><clipPath id="da44b04089"><path d="M 257.199219 57.773438 L 332.207031 114.386719 L 225.214844 256.152344 L 150.203125 199.542969 Z M 257.199219 57.773438 " clip-rule="nonzero"/></clipPath><clipPath id="5addb1e63b"><rect x="0" width="332" y="0" height="269"/></clipPath></defs><g transform="matrix(1, 0, 0, 1, 43, 53)"><g clip-path="url(#5addb1e63b)"><g clip-path="url(#b7b7d37870)"><path fill="#004207" d="M 8.261719 230.871094 C 11.132812 245.1875 14.484375 261.910156 24.640625 268.019531 C 28.199219 267.875 31.886719 263.640625 34.730469 260.347656 C 35.773438 258.671875 35.757812 256.078125 35.015625 253.75 C 34.664062 252.652344 34.148438 251.65625 33.503906 250.890625 C 33.050781 250.355469 32.578125 249.980469 32.121094 249.859375 C 31.5625 249.710938 30.777344 249.929688 29.738281 250.683594 L 29.714844 250.699219 L 29.71875 250.707031 C 29.730469 250.703125 29.730469 250.703125 29.722656 250.710938 C 28.890625 251.4375 27.964844 252.242188 26.179688 252.242188 C 23.039062 252.242188 21.96875 249.492188 21.234375 247.613281 C 21.144531 247.378906 21.253906 247.5625 21.164062 247.378906 L 21 247.046875 L 20.933594 246.863281 C 15.582031 231.8125 12.007812 216.128906 10.074219 200.234375 C 8.0625 183.734375 7.816406 166.996094 9.175781 150.503906 C 10.726562 130.890625 15.542969 111.410156 23.480469 93.351562 C 31.144531 75.921875 41.734375 59.796875 55.125 46.125 L 55.160156 46.089844 C 63.507812 37.816406 73.183594 29.628906 83.917969 23.636719 C 94.917969 17.5 106.996094 13.679688 119.867188 14.386719 L 119.867188 14.390625 C 121.394531 14.453125 122.902344 14.640625 124.382812 14.9375 C 132.011719 16.46875 138.660156 20.980469 143.304688 27.011719 C 147.9375 33.035156 150.617188 40.613281 150.324219 48.300781 C 150.265625 49.863281 150.082031 51.441406 149.761719 53.019531 L 149.761719 53.054688 C 148.316406 59.917969 144.65625 65.589844 139.914062 70.289062 C 135.386719 74.78125 129.894531 78.359375 124.488281 81.226562 L 123.484375 81.761719 L 122.375 81.761719 C 119.738281 81.761719 117.113281 81.984375 114.816406 82.683594 C 112.828125 83.292969 111.007812 84.269531 109.550781 85.804688 C 107.332031 89.097656 106.679688 91.9375 107.136719 94.113281 C 107.371094 95.226562 107.921875 96.179688 108.699219 96.914062 C 109.542969 97.710938 110.683594 98.285156 112.027344 98.582031 C 114.96875 99.230469 118.71875 98.515625 122.523438 95.929688 L 123.796875 95.066406 L 125.3125 95.148438 C 133.148438 95.585938 140.933594 97.261719 148.3125 100.019531 C 155.734375 102.789062 162.742188 106.65625 168.972656 111.457031 L 177.429688 117.972656 L 166.859375 119.539062 C 122.371094 126.128906 96.652344 142.386719 86.957031 158.089844 C 83.566406 163.585938 82.261719 168.902344 82.917969 173.535156 C 83.539062 177.910156 85.996094 181.777344 90.179688 184.652344 C 99.875 191.316406 118.179688 192.824219 144.125 184.324219 L 144.160156 184.308594 C 155.988281 180.558594 168.289062 174.5625 177.421875 165.957031 C 184.558594 159.234375 189.757812 150.878906 191.203125 140.730469 L 191.289062 140.101562 L 191.539062 139.539062 C 191.546875 139.523438 191.457031 138.46875 191.371094 137.460938 C 191.101562 134.300781 190.851562 131.328125 193.859375 129.230469 L 194.792969 128.585938 L 195.921875 128.449219 C 198.714844 128.121094 202.117188 127.699219 205.515625 127.277344 C 208.527344 126.90625 211.535156 126.535156 215.144531 126.109375 L 215.289062 126.109375 C 219.082031 125.769531 221.96875 125.277344 224.070312 124.917969 C 227.886719 124.269531 229.859375 123.933594 232.234375 125.332031 C 234.746094 126.816406 235.382812 128.871094 236.695312 133.128906 C 237.242188 134.90625 237.957031 137.222656 239.039062 140.207031 C 248.046875 159.140625 262.253906 158.894531 276.816406 152.046875 C 288.417969 146.589844 300.542969 137.039062 310.816406 128.949219 C 314.449219 126.089844 317.84375 123.414062 321.414062 120.804688 L 321.40625 120.792969 L 321.957031 120.378906 L 321.964844 120.390625 C 328.546875 115.398438 338.605469 107.773438 347.828125 105.574219 C 357.382812 103.300781 365.699219 106.007812 369.015625 119.921875 L 369.1875 120.644531 L 369.105469 121.433594 C 368.828125 124.070312 368.59375 127.058594 369.050781 129.628906 C 369.398438 131.574219 370.191406 133.308594 371.847656 134.363281 L 371.847656 134.367188 C 373.324219 135.101562 374.242188 134.472656 374.851562 133.390625 C 376.089844 131.195312 376.90625 127.792969 377.5625 125.058594 C 377.789062 124.113281 378 123.234375 378.207031 122.46875 L 378.480469 121.464844 L 379.148438 120.691406 C 386.425781 112.265625 397.011719 105.191406 408.335938 101.9375 C 418.496094 99.019531 429.304688 99.125 439.023438 103.949219 L 439.21875 104.042969 L 439.433594 104.179688 C 445.003906 107.675781 449.65625 112.496094 453.351562 117.972656 C 457.371094 123.925781 460.28125 130.71875 462.007812 137.425781 L 462.0625 137.621094 C 462.164062 138.121094 462.507812 138.574219 462.984375 138.949219 C 463.496094 139.351562 464.136719 139.644531 464.824219 139.804688 C 465.53125 139.96875 466.242188 139.996094 466.878906 139.863281 C 467.460938 139.742188 467.976562 139.476562 468.3125 139.042969 L 468.324219 139.050781 C 468.546875 138.753906 468.710938 138.15625 468.824219 137.363281 C 469.011719 136.058594 468.972656 134.515625 468.761719 132.945312 L 468.328125 129.71875 L 467.175781 127.121094 C 467.058594 126.863281 466.972656 126.671875 466.910156 126.546875 C 466.828125 126.390625 466.742188 126.230469 466.648438 126.070312 L 466.421875 125.679688 L 466.277344 125.253906 C 462.675781 114.699219 457.59375 106.320312 451.515625 100.117188 C 445.210938 93.683594 437.832031 89.578125 429.929688 87.808594 C 421.992188 86.035156 413.457031 86.597656 404.890625 89.523438 C 395.960938 92.566406 387.011719 98.171875 378.660156 106.355469 L 374.109375 110.8125 L 371.378906 105.078125 C 365 91.6875 356.222656 89.28125 346.382812 92.367188 C 335.070312 95.914062 321.980469 106.046875 309.1875 116.183594 L 309.171875 116.183594 L 307.007812 117.894531 C 295.160156 127.277344 283.660156 136.386719 273.394531 140.65625 C 260.277344 146.113281 249.394531 144.40625 242.632812 128.15625 L 240.273438 122.480469 L 246.417969 121.902344 C 255.996094 121.003906 267.035156 118.738281 275.199219 114.277344 C 278.808594 112.304688 281.800781 109.925781 283.734375 107.082031 C 285.527344 104.4375 286.441406 101.277344 286.085938 97.519531 C 285.796875 94.417969 284.660156 90.875 282.488281 86.835938 C 279.453125 82.585938 275.894531 79.957031 272.136719 78.652344 C 267.558594 77.0625 262.539062 77.390625 257.730469 79.109375 C 252.675781 80.914062 247.90625 84.207031 244.085938 88.4375 C 239.457031 93.558594 236.238281 100.007812 235.625 106.769531 L 235.292969 110.460938 L 231.613281 110.875 C 226.121094 111.488281 219.773438 112.277344 213.425781 113.0625 C 205.523438 114.042969 197.617188 115.023438 189.058594 115.902344 L 186.289062 116.1875 L 184.777344 113.84375 C 180.75 107.589844 175.484375 102.238281 169.492188 97.785156 C 162.828125 92.839844 155.257812 88.996094 147.464844 86.25 L 141.195312 84.039062 L 145.546875 79 C 152.269531 71.21875 156.046875 61.292969 156.871094 51.058594 C 157.707031 40.648438 155.496094 29.980469 150.226562 20.964844 L 150.21875 20.96875 C 146.558594 15.070312 142.417969 10.640625 137.945312 7.464844 C 129.464844 1.449219 119.558594 -0.136719 109.289062 1.292969 C 98.605469 2.785156 87.5 7.515625 77.097656 13.972656 C 61.777344 23.484375 48.121094 36.636719 39.519531 48.761719 L 39.414062 48.90625 C 22.0625 71.328125 11.171875 97.441406 5.621094 124.859375 C -0.53125 155.253906 -0.132812 187.257812 5.292969 217.65625 C 6.425781 221.71875 7.320312 226.171875 8.261719 230.867188 Z M 466.847656 124.882812 L 467.097656 127.597656 L 468.542969 131.332031 C 469.074219 132.519531 469.609375 132.914062 470.453125 134.191406 C 471.332031 135.515625 472.347656 136.839844 473.515625 138.160156 L 473.535156 138.160156 C 476.226562 141.214844 479.816406 143.042969 483.753906 144.113281 C 488.027344 145.28125 492.753906 145.589844 497.273438 145.589844 L 497.273438 145.574219 C 507.21875 145.574219 517.433594 142.445312 526.386719 137.203125 C 535.472656 131.882812 543.21875 124.417969 548.027344 115.855469 L 551.765625 109.203125 L 555.824219 115.679688 C 558.539062 120.011719 561.394531 123.480469 564.351562 126.179688 C 570.472656 131.765625 577.007812 133.898438 583.621094 133.609375 C 590.558594 133.300781 597.742188 130.40625 604.742188 126.019531 C 613.339844 120.632812 621.652344 112.980469 628.949219 105.007812 C 632.039062 100.820312 633.882812 100.246094 637.117188 102.601562 C 638.003906 103.246094 638.402344 103.859375 638.929688 104.679688 C 639.121094 104.980469 639.367188 105.363281 639.660156 105.707031 L 639.871094 105.988281 C 641.140625 107.753906 642.570312 109.363281 644.144531 110.828125 C 651.75 117.898438 662.433594 121.101562 673.421875 120.996094 C 684.601562 120.890625 696.007812 117.375 704.839844 111.03125 C 707.148438 109.375 709.285156 107.511719 711.203125 105.449219 L 715.078125 101.285156 L 718.394531 106.175781 L 718.402344 106.171875 C 724.472656 115.089844 731.941406 121.601562 741.003906 123.605469 C 750.144531 125.625 761.246094 123.144531 774.667969 114.070312 L 774.675781 114.082031 L 777.96875 111.847656 L 780.605469 114.394531 C 782.554688 116.277344 784.539062 118.082031 786.558594 119.746094 C 788.578125 121.410156 790.679688 122.980469 792.882812 124.40625 L 792.9375 124.441406 C 797.761719 127.667969 802.273438 129.96875 806.46875 131.476562 C 810.808594 133.03125 814.804688 133.738281 818.460938 133.738281 L 818.460938 133.71875 C 826.3125 133.71875 832.503906 130.335938 836.714844 125.070312 C 840.015625 120.9375 842.171875 115.617188 843.035156 109.792969 C 843.914062 103.859375 843.433594 97.464844 841.449219 91.316406 C 837.96875 80.53125 829.824219 70.46875 816.191406 64.90625 C 812.214844 63.398438 807.976562 62.769531 803.761719 62.941406 C 799.425781 63.117188 795.097656 64.144531 791.070312 65.941406 C 785.730469 69.042969 780.960938 72.382812 777.964844 77.300781 C 774.917969 82.300781 773.5 89.273438 774.804688 99.886719 L 775.117188 102.398438 L 773.117188 103.988281 C 766.730469 109.074219 760.601562 111.824219 754.828125 112.765625 C 748.585938 113.78125 742.847656 112.679688 737.691406 110.097656 C 732.71875 107.605469 728.371094 103.761719 724.703125 99.152344 C 717.679688 90.324219 713.015625 78.496094 711.285156 68.140625 C 710.917969 66.558594 710.578125 65.058594 710.265625 63.632812 C 710.074219 62.761719 709.75 61.214844 709.308594 59.089844 L 708.21875 53.816406 L 714.84375 53.617188 C 720.773438 53.4375 726.703125 53.257812 732.886719 52.976562 L 733.226562 52.976562 C 737.863281 53.136719 740.894531 51.214844 742.21875 48.730469 C 742.699219 47.824219 742.960938 46.871094 742.996094 45.949219 C 743.027344 45.054688 742.855469 44.167969 742.46875 43.371094 C 741.488281 41.347656 738.96875 39.800781 734.6875 39.796875 C 729.828125 40.238281 725.535156 40.550781 721.597656 40.78125 C 717.609375 41.015625 713.730469 41.179688 709.902344 41.3125 L 705.945312 41.453125 L 705.265625 37.546875 C 704.847656 35.140625 704.433594 32.734375 704.019531 30.324219 C 703.71875 28.566406 703.414062 26.8125 703.109375 25.054688 L 703.117188 25.054688 C 702.722656 23.316406 702.445312 21.171875 702.128906 18.765625 C 701.527344 14.136719 700.78125 8.433594 699.105469 4.726562 L 699.105469 4.691406 C 698.441406 3.195312 697.636719 2.09375 696.800781 1.523438 C 696.597656 1.386719 696.441406 1.304688 696.339844 1.292969 C 696.3125 1.289062 696.277344 1.296875 696.238281 1.3125 C 695.917969 1.457031 695.523438 1.832031 695.0625 2.480469 C 691.652344 9.488281 693.347656 17.5625 695.054688 25.707031 C 695.828125 29.390625 696.601562 33.082031 697 36.898438 L 697.496094 41.691406 L 692.664062 41.890625 C 689.65625 42.011719 686.421875 42.171875 682.753906 42.40625 C 679.191406 42.632812 675.566406 42.90625 671.847656 43.246094 C 670.578125 43.503906 669.449219 43.640625 668.300781 43.78125 C 664.886719 44.199219 661.210938 44.648438 661.210938 49.445312 C 661.210938 52.5625 662.375 54.175781 664.050781 54.945312 C 666.417969 56.03125 669.886719 56.113281 673.222656 55.949219 C 677 55.542969 680.707031 55.21875 684.359375 54.953125 C 687.902344 54.699219 691.65625 54.488281 695.542969 54.304688 L 699.417969 54.125 L 700.195312 57.929688 C 701.320312 63.46875 702.714844 69.167969 704.410156 74.84375 C 705.929688 79.945312 707.679688 84.957031 709.675781 89.722656 L 711.132812 93.191406 L 707.953125 95.265625 C 707.378906 95.636719 706.765625 96.066406 706.105469 96.558594 C 705.410156 97.074219 704.703125 97.625 703.988281 98.214844 L 703.898438 98.289062 C 695.558594 104.78125 684.972656 108.917969 674.34375 109.144531 C 664.730469 109.351562 655.101562 106.410156 647.027344 99.210938 L 646.667969 98.894531 L 646.351562 98.449219 C 638.207031 87.015625 634.761719 85.050781 631.929688 87.066406 C 630.09375 88.375 627.953125 90.84375 625.410156 93.777344 C 619.601562 100.480469 611.925781 109.335938 598.578125 115.804688 C 595.296875 117.824219 592.105469 119.035156 589.023438 119.554688 C 583.386719 120.507812 578.296875 119.15625 573.804688 116.234375 C 569.636719 113.527344 566.070312 109.484375 563.125 104.746094 C 558.308594 97.003906 555.054688 87.234375 553.585938 78.5625 C 552.980469 75.6875 553.636719 78.824219 553.109375 76.324219 C 550.300781 63.101562 547.222656 48.59375 546.496094 26.777344 C 546.453125 25.5625 546.269531 24.261719 545.90625 23.039062 C 545.542969 21.808594 545.011719 20.722656 544.285156 20.03125 C 543.769531 19.542969 543.058594 19.246094 542.09375 19.277344 C 541.574219 19.296875 540.960938 19.402344 540.242188 19.617188 C 539.429688 19.855469 538.746094 20.550781 538.238281 21.632812 C 537.476562 23.25 537.117188 25.535156 537.222656 28.386719 C 537.746094 41.46875 538.730469 53.585938 540.128906 63.753906 C 541.4375 73.246094 543.089844 80.9375 545.054688 85.96875 L 548.351562 94.429688 L 539.617188 91.988281 C 534.511719 90.5625 527.910156 90.253906 520.742188 90.914062 C 509.429688 91.957031 496.914062 95.394531 486.660156 100.648438 C 476.945312 105.625 469.410156 112.121094 467.34375 119.511719 C 466.859375 121.25 466.675781 123.042969 466.847656 124.882812 Z M 29.59375 250.773438 C 29.394531 250.90625 29.667969 250.734375 29.71875 250.707031 L 29.710938 250.699219 Z M 23.355469 268.167969 L 23.628906 268.097656 L 23.628906 268.09375 C 23.621094 268.097656 23.066406 268.238281 23.355469 268.167969 Z M 792.554688 75.722656 C 793.425781 75.183594 794.335938 74.742188 795.277344 74.398438 L 795.296875 74.398438 C 803.003906 71.625 809.859375 71.542969 815.6875 73.253906 C 820.449219 74.652344 824.480469 77.242188 827.695312 80.546875 C 830.847656 83.78125 833.214844 87.71875 834.714844 91.898438 C 836.894531 97.957031 837.253906 104.570312 835.5625 110.328125 C 834.277344 114.691406 831.34375 118.183594 827.441406 120.589844 C 824.402344 122.464844 820.78125 123.671875 816.9375 124.101562 C 813.175781 124.523438 809.15625 124.210938 805.21875 123.050781 C 798.585938 121.09375 792.203125 116.75 787.734375 109.5 C 786.6875 107.804688 785.851562 106.054688 785.210938 104.289062 C 783.226562 98.820312 783.03125 93.042969 784.246094 88.058594 C 785.539062 82.761719 788.445312 78.253906 792.554688 75.722656 Z M 626.855469 55.296875 C 627.074219 55.46875 627.308594 55.613281 627.546875 55.707031 L 627.761719 55.796875 C 627.96875 55.894531 628.125 55.945312 628.210938 55.941406 L 628.210938 55.949219 C 628.636719 55.910156 629.03125 55.847656 629.414062 55.738281 C 629.691406 55.660156 629.949219 55.550781 630.199219 55.390625 L 630.234375 55.355469 C 630.433594 55.234375 630.59375 55.109375 630.726562 54.984375 C 630.898438 54.828125 631.09375 54.609375 631.300781 54.351562 L 631.308594 54.359375 C 631.777344 53.742188 632.132812 53.015625 632.386719 52.226562 C 632.679688 51.320312 632.820312 50.324219 632.820312 49.304688 C 632.820312 47.472656 632.238281 45.449219 631.132812 44.03125 C 630.480469 43.195312 629.625 42.621094 628.617188 42.621094 C 627.617188 42.621094 626.765625 43.195312 626.117188 44.035156 C 625 45.46875 624.410156 47.496094 624.410156 49.304688 C 624.410156 50.324219 624.554688 51.320312 624.84375 52.226562 C 625.101562 53.019531 625.460938 53.75 625.929688 54.371094 C 626.214844 54.71875 626.527344 55.042969 626.855469 55.300781 Z M 486.054688 135.171875 C 478.824219 133.5 474.765625 129.273438 476.519531 121.683594 L 476.519531 121.664062 C 477.902344 115.742188 482.277344 111.179688 488.167969 107.769531 C 494.988281 103.824219 503.992188 101.390625 512.40625 100.222656 C 520.855469 99.046875 528.898438 99.136719 533.652344 100.246094 C 536.742188 100.96875 539.015625 102.292969 540.132812 104.226562 L 540.128906 104.230469 C 544.828125 112.230469 539.28125 119.796875 529.476562 125.574219 C 523.277344 129.230469 515.21875 132.246094 507.449219 134.039062 C 499.472656 135.878906 491.613281 136.457031 486.054688 135.171875 Z M 120.0625 176.402344 C 109.007812 177.59375 99.046875 176.582031 92.808594 172.632812 L 88.300781 169.773438 L 91.832031 165.792969 C 111.660156 143.4375 142.96875 137.503906 170.910156 132.210938 C 172.828125 131.847656 174.738281 131.484375 178.355469 130.777344 L 183.207031 129.832031 L 183.738281 134.757812 C 184.21875 139.203125 182.980469 143.484375 180.429688 147.515625 C 175.660156 155.042969 166.082031 161.738281 154.851562 166.796875 C 143.941406 171.710938 131.316406 175.1875 120.0625 176.402344 Z M 249.597656 89.847656 C 252.085938 87.773438 255.011719 86.660156 257.21875 85.855469 C 259.738281 84.90625 262.609375 84.328125 265.277344 84.152344 C 268.144531 83.960938 270.914062 84.242188 272.972656 85.027344 L 273.046875 85.0625 C 274.867188 85.792969 276.707031 87.246094 277.9375 89.058594 C 278.917969 90.496094 279.558594 92.207031 279.601562 94.054688 C 279.644531 96.015625 279.039062 98 277.503906 99.8125 C 276.109375 101.457031 273.929688 102.929688 270.710938 103.996094 C 269.210938 104.5625 264 106.382812 259.117188 107.179688 C 256.734375 107.566406 254.371094 107.722656 252.371094 107.425781 C 249.265625 106.96875 246.847656 105.542969 245.71875 102.664062 C 245.539062 102.203125 245.402344 101.703125 245.3125 101.164062 L 245.3125 101.128906 C 244.492188 95.929688 246.566406 92.375 249.597656 89.847656 Z M 249.597656 89.847656 " fill-opacity="1" fill-rule="nonzero"/></g><g clip-path="url(#ec46171028)"><g clip-path="url(#c49cee41bc)"><g clip-path="url(#da44b04089)"><path fill="#004207" d="M 232.878906 184.363281 C 231.242188 183.789062 229.707031 183.273438 228.164062 182.703125 C 227.59375 182.496094 227.050781 182.238281 226.535156 181.917969 C 225.589844 181.332031 224.363281 180.710938 224.792969 179.390625 C 225.222656 178.070312 226.578125 178.34375 227.699219 178.429688 C 228.460938 178.484375 229.222656 178.535156 230.257812 178.609375 C 228.667969 177.347656 226.667969 177.070312 225.453125 175.472656 C 227.285156 173.523438 228.929688 175.671875 230.910156 175.261719 C 229.988281 160.972656 229.308594 146.59375 227.339844 132.265625 C 226.082031 132.96875 224.917969 133.613281 223.609375 134.34375 C 224.601562 139.1875 225.757812 144.132812 226.617188 149.136719 C 227.671875 155.238281 228.523438 161.378906 229.386719 167.511719 C 229.746094 169.800781 229.5 172.023438 228.640625 174.179688 C 228.113281 172.835938 227.636719 172.027344 227.480469 171.164062 C 226.785156 167.273438 226.097656 163.375 225.554688 159.460938 C 224.992188 155.460938 224.664062 151.429688 224.109375 147.421875 C 223.652344 144.101562 223.007812 140.804688 222.464844 137.488281 C 222.117188 135.367188 221.605469 133.335938 220.574219 131.382812 C 219.703125 129.761719 219.046875 127.8125 219.019531 125.976562 C 218.929688 121.953125 218.800781 117.824219 219.585938 113.914062 C 221.664062 103.460938 227.304688 95.28125 236.515625 89.683594 C 238.574219 88.433594 240.480469 86.871094 242.636719 85.851562 C 247.914062 83.347656 253.285156 81.035156 258.644531 78.730469 C 259.796875 78.234375 261.089844 78.0625 262.308594 77.75 C 262.726562 79.214844 262.726562 79.214844 262.261719 80.515625 C 264.351562 79.1875 266.363281 77.71875 268.523438 76.546875 C 270.667969 75.441406 272.875 74.472656 275.140625 73.644531 C 276.234375 73.222656 277.5 72.832031 278.488281 73.992188 C 279.234375 74.875 279.042969 75.882812 277.945312 77.5 C 276.496094 79.636719 274.945312 81.710938 273.6875 83.953125 C 272.859375 85.429688 272.375 87.132812 271.910156 88.785156 C 271.230469 91.210938 271.710938 93.433594 272.882812 95.730469 C 274.132812 98.1875 275.046875 100.765625 275.628906 103.460938 C 276.527344 107.664062 277.019531 111.957031 277.65625 116.210938 C 278.8125 123.90625 276.753906 130.621094 271.886719 136.683594 C 269.863281 139.203125 268.34375 142.15625 266.808594 145.03125 C 263.527344 151.175781 260.253906 157.335938 257.230469 163.613281 C 254.832031 168.59375 252.253906 173.4375 249.015625 177.917969 C 248.777344 178.269531 248.570312 178.640625 248.386719 179.023438 C 248.347656 179.074219 248.425781 179.183594 248.496094 179.441406 C 249.253906 179.519531 250.136719 179.457031 250.894531 179.738281 C 251.4375 179.9375 252.128906 180.570312 252.164062 181.058594 C 252.195312 181.546875 251.59375 182.269531 251.085938 182.527344 C 250.507812 182.816406 249.738281 182.789062 249.070312 182.722656 C 246.675781 182.488281 244.289062 182.164062 241.898438 181.898438 C 238.4375 181.515625 234.972656 181.148438 231.488281 181.007812 C 236.332031 182.53125 241.152344 184.050781 246.320312 183.707031 C 247.636719 183.613281 248.96875 183.820312 250.5625 183.902344 C 249.992188 185.59375 248.902344 185.800781 247.84375 186.007812 C 244.828125 186.605469 241.839844 186.265625 238.871094 185.671875 C 237.4375 185.386719 236.007812 185.09375 234.539062 184.792969 C 234.265625 188.523438 234.191406 192.191406 233.695312 195.804688 C 232.207031 206.398438 229.859375 216.800781 226.648438 227.007812 C 224.964844 232.433594 223.375 237.894531 221.929688 243.390625 C 221.496094 245.15625 221.390625 246.941406 221.601562 248.746094 C 221.878906 251.261719 224.082031 252.066406 226.171875 250.605469 C 227.898438 249.390625 228.714844 247.53125 229.117188 245.59375 C 229.730469 242.652344 230.40625 239.667969 230.449219 236.679688 C 230.558594 227.003906 231.753906 217.460938 233.316406 207.9375 C 234.113281 203.089844 234.648438 198.21875 235.421875 193.375 C 235.703125 191.625 236.34375 189.925781 236.902344 187.894531 C 237.957031 189.066406 237.53125 190.144531 237.460938 191.050781 C 236.917969 198.175781 236.277344 205.28125 235.664062 212.398438 C 234.992188 220.019531 234.308594 227.660156 233.683594 235.285156 C 233.402344 239.351562 232.511719 243.277344 231.011719 247.066406 C 230.085938 249.328125 228.875 251.386719 226.6875 252.703125 C 223.144531 254.839844 219.042969 253.269531 218.28125 249.226562 C 217.859375 247.097656 217.871094 244.972656 218.328125 242.851562 C 219.480469 238 220.867188 233.191406 222.472656 228.464844 C 225.710938 218.929688 228.796875 209.332031 230.738281 199.417969 C 231.367188 196.214844 231.773438 192.964844 232.242188 189.730469 C 232.480469 188.054688 232.648438 186.339844 232.878906 184.363281 Z M 261.277344 120.074219 C 261.136719 117.902344 259.988281 116.492188 257.769531 115.503906 C 257.335938 116.453125 256.878906 117.246094 256.613281 118.101562 C 256.390625 118.832031 256.441406 119.640625 256.277344 120.390625 C 256.019531 121.738281 255.671875 123.0625 255.238281 124.367188 C 254.90625 125.28125 254.082031 126.082031 253.058594 125.808594 C 252.339844 125.628906 251.683594 124.902344 251.210938 124.265625 C 250.78125 123.683594 250.636719 122.894531 250.367188 122.195312 C 249.351562 128.351562 248.78125 134.496094 247.960938 140.601562 C 247.125 146.820312 246.128906 153.019531 245.066406 159.203125 C 244.03125 165.199219 242.824219 171.164062 241.691406 177.144531 C 242.179688 176.136719 242.597656 175.105469 242.941406 174.042969 C 246.0625 165.195312 249.242188 156.367188 252.28125 147.496094 C 253.730469 143.269531 254.921875 138.957031 256.230469 134.679688 C 257.542969 130.402344 258.824219 126.125 260.179688 121.867188 C 260.394531 121.191406 260.953125 120.632812 261.363281 120.007812 C 260.800781 122.34375 260.230469 124.671875 259.679688 127.007812 C 258.445312 132.28125 257.671875 137.71875 255.894531 142.804688 C 251.976562 154.007812 247.558594 165.027344 243.351562 176.125 C 243.058594 176.910156 242.792969 177.710938 242.433594 178.742188 L 246.417969 179.382812 C 246.585938 178.78125 246.558594 178.160156 246.855469 177.84375 C 248.9375 175.761719 249.785156 173.035156 250.898438 170.4375 C 253.167969 165.140625 255.632812 159.921875 257.71875 154.558594 C 260.386719 147.652344 262.804688 140.65625 265.265625 133.675781 C 266.433594 130.371094 267.878906 127.078125 268.4375 123.65625 C 269.050781 119.867188 268.023438 116.066406 266.914062 111.851562 C 265.429688 113.914062 265.378906 115.847656 264.839844 117.609375 C 264.304688 119.371094 264.683594 121.5625 262.65625 123.164062 C 262.15625 122.003906 261.734375 121.039062 261.285156 120.066406 Z M 246.910156 112.40625 C 246.40625 113.300781 245.820312 114.046875 245.535156 114.894531 C 244.851562 116.921875 244.257812 118.992188 243.707031 121.074219 C 242.449219 125.746094 241.109375 130.421875 237.863281 134.148438 C 236.46875 135.757812 236.164062 137.328125 236.371094 139.316406 C 237.636719 151.246094 237.410156 163.175781 236.078125 175.089844 C 236.042969 175.796875 236.054688 176.5 236.105469 177.207031 L 239.195312 177.96875 C 240.894531 170.679688 242.542969 163.652344 244.167969 156.621094 C 247.230469 143.425781 248.222656 129.964844 249.292969 116.511719 C 249.433594 114.800781 248.898438 113.480469 246.914062 112.398438 Z M 234.65625 113.472656 C 234.140625 113.628906 233.953125 113.628906 233.851562 113.722656 C 233.585938 113.945312 233.359375 114.199219 233.171875 114.488281 C 230.625 119.066406 229.082031 124.023438 228.824219 129.195312 C 228.644531 132.851562 229.425781 136.546875 229.710938 140.226562 C 230.148438 145.96875 230.484375 151.703125 230.941406 157.453125 C 231.308594 161.992188 231.847656 166.519531 232.214844 171.054688 C 232.347656 172.660156 232.199219 174.285156 232.179688 176.082031 L 234.742188 176.746094 C 234.847656 174.105469 234.886719 171.792969 235.035156 169.488281 C 235.332031 164.941406 235.984375 160.402344 235.949219 155.859375 C 235.894531 149.675781 235.347656 143.503906 234.992188 137.324219 C 234.960938 136.941406 234.863281 136.390625 234.59375 136.195312 C 233.214844 135.1875 233.226562 133.675781 233.050781 132.242188 C 232.511719 127.667969 232.988281 123.144531 233.796875 118.644531 C 234.101562 116.976562 234.355469 115.304688 234.65625 113.472656 Z M 261.484375 149.273438 L 261.730469 149.484375 C 263.34375 146.777344 264.882812 144.023438 266.589844 141.382812 C 267.714844 139.65625 268.761719 138.058594 268.328125 135.796875 C 268.09375 134.578125 268.46875 133.246094 268.535156 131.957031 C 268.59375 130.796875 268.601562 129.628906 268.632812 128.460938 L 268.359375 128.441406 Z M 261.484375 149.273438 " fill-opacity="1" fill-rule="nonzero"/></g></g></g></g></g></svg>